<svg  width="27" height="32" viewBox="0 0 27 32" fill="transparent" xmlns="http://www.w3.org/2000/svg">
                <path d="M14 7.5L9.5 17.312M9.5 17.312L4.44529 28.591C4.14879 29.2526 4.63285 30 5.35784 30H18.9283C21.4354 30 23.6841 28.387 24.5871 25.9411C26.1217 21.7846 23.1887 17.312 18.9283 17.312H18.2316M9.5 17.312H18.2316M9.5 17.312H2.53948C1.81564 17.312 1.33158 16.5668 1.62584 15.9055L7.54906 2.59347C7.70966 2.23255 8.06767 2 8.4627 2H18.4976C21.6545 2 23.8131 5.33459 22.6405 8.39998L18.2316 17.312M18.2316 17.312L15 24.5"
                 stroke="red"
               stroke-width="3" 
                 stroke-linecap="round" />
            </svg>